# xmcd CD database file
#
# Track frame offsets:
#	150
#	9106
#	28989
#	54676
#	71836
#	81840
#	92530
#	101641
#	114200
#	128375
#	139707
#	159936
#	175843
#	186987
#	198625
#	206925
#	217761
#	231208
#
# Disc length: 3397 seconds
#
# Revision: 0
# Processed by: cddbd v1.5.2PL0 Copyright (c) Steve Scherf et al.
# Submitted via: CDex 1.51
#
DISCID=f20d4312
DTITLE=Various Artist - The Best of Micos Vol. 3 - Best of the Blues
DYEAR=1900
DGENRE=Blues
TTITLE0=Walking to New Orleans (Fats Domino)
TTITLE1=My baby just cares for me (Nina Simone)
TTITLE2=The right time (James Brown)
TTITLE3=Midnight child (Roger Chapman)
TTITLE4=I'm walking (Fats Domino)
TTITLE5=Respect (Otis Redding)
TTITLE6=Summertime Blues (Eddie Cochran)
TTITLE7=No particular place to go (Chuck Berry)
TTITLE8=Lady Rose (Mungo Cherry)
TTITLE9=Singing the blues (Guy Mitchell)
TTITLE10=Shout (The Isley Brothers)
TTITLE11=In the summertime (Mungo Cherry)
TTITLE12=Catfish Blues (B. B. King)
TTITLE13=Ray Charles Blues (Ray Charles)
TTITLE14=The Hucklebuck (Chubby Checker)
TTITLE15=Hey baby (Bruce Channel)
TTITLE16=Goodbye baby (Van Morrison)
TTITLE17=Who drove the red sports car (Van Morrison)
EXTD=
EXTT0=
EXTT1=
EXTT2=
EXTT3=
EXTT4=
EXTT5=
EXTT6=
EXTT7=
EXTT8=
EXTT9=
EXTT10=
EXTT11=
EXTT12=
EXTT13=
EXTT14=
EXTT15=
EXTT16=
EXTT17=
PLAYORDER=
